<svg xmlns="http://www.w3.org/2000/svg" viewBox="0 0 509.67 591.13"><defs><style>.cls-1,.cls-5{fill:#eee;}.cls-1{stroke:gray;stroke-width:6px;}.cls-1,.cls-6{stroke-miterlimit:10;}.cls-2{fill:#4f4f4f;}.cls-3{fill:#c6c6c6;}.cls-4{fill:#9e9e9e;}.cls-6{fill:none;stroke:#757575;stroke-width:8px;}.cls-7{fill:#757575;}</style></defs><g id="Layer_2" data-name="Layer 2"><g id="Layer_1-2" data-name="Layer 1"><circle class="cls-1" cx="255.35" cy="295.2" r="64.5"/><polygon class="cls-2" points="259.9 264.61 259.9 254.7 279.19 254.84 279.19 331.3 259.9 331.3 259.9 317.5 267.26 317.5 271.42 317.5 271.55 264.61 267.26 264.61 259.9 264.61"/><polygon class="cls-2" points="255.07 265.15 254.94 255.1 235.65 255.24 235.65 331.7 254.94 331.7 254.54 307.06 247.31 299.42 247.57 305.35 247.57 318.04 243.42 318.04 243.29 265.02 247.57 265.02 255.07 265.15"/><polygon class="cls-3" points="413.85 149.7 457.85 122.7 502.85 150.7 461.85 177.7 413.85 149.7"/><polygon class="cls-4" points="414.85 212.7 413.85 149.7 461.85 177.7 461.85 231.7 414.85 212.7"/><polygon class="cls-5" points="502.85 208.7 502.85 150.7 461.85 177.7 461.85 231.7 502.85 208.7"/><polygon class="cls-6" points="459.84 120.7 505.67 149.22 505.67 208.28 463.92 231.7 416.05 212.35 415.04 148.2 459.84 120.7"/><polygon class="cls-3" points="208.85 33.7 252.85 6.7 297.85 34.7 256.85 61.7 208.85 33.7"/><polygon class="cls-4" points="209.85 96.7 208.85 33.7 256.85 61.7 256.85 115.7 209.85 96.7"/><polygon class="cls-5" points="297.85 92.7 297.85 34.7 256.85 61.7 256.85 115.7 297.85 92.7"/><polygon class="cls-6" points="254.84 4.7 300.67 33.22 300.67 92.28 258.92 115.7 211.05 96.35 210.04 32.2 254.84 4.7"/><polygon class="cls-3" points="3.85 152.7 47.85 125.7 92.85 153.7 51.85 180.7 3.85 152.7"/><polygon class="cls-4" points="4.85 215.7 3.85 152.7 51.85 180.7 51.85 234.7 4.85 215.7"/><polygon class="cls-5" points="92.85 211.7 92.85 153.7 51.85 180.7 51.85 234.7 92.85 211.7"/><polygon class="cls-6" points="49.84 123.7 95.67 152.22 95.67 211.28 53.92 234.7 6.05 215.35 5.04 151.2 49.84 123.7"/><polygon class="cls-3" points="2.85 378.7 46.85 351.7 91.85 379.7 50.85 406.7 2.85 378.7"/><polygon class="cls-4" points="3.85 441.7 2.85 378.7 50.85 406.7 50.85 460.7 3.85 441.7"/><polygon class="cls-5" points="91.85 437.7 91.85 379.7 50.85 406.7 50.85 460.7 91.85 437.7"/><polygon class="cls-6" points="48.84 349.7 94.67 378.22 94.67 437.28 52.92 460.7 5.05 441.35 4.04 377.2 48.84 349.7"/><polygon class="cls-3" points="207.85 504.7 251.85 477.7 296.85 505.7 255.85 532.7 207.85 504.7"/><polygon class="cls-4" points="208.85 567.7 207.85 504.7 255.85 532.7 255.85 586.7 208.85 567.7"/><polygon class="cls-5" points="296.85 563.7 296.85 505.7 255.85 532.7 255.85 586.7 296.85 563.7"/><polygon class="cls-6" points="253.84 475.7 299.67 504.22 299.67 563.28 257.92 586.7 210.05 567.35 209.04 503.2 253.84 475.7"/><polygon class="cls-3" points="413.85 386.7 457.85 359.7 502.85 387.7 461.85 414.7 413.85 386.7"/><polygon class="cls-4" points="414.85 449.7 413.85 386.7 461.85 414.7 461.85 468.7 414.85 449.7"/><polygon class="cls-5" points="502.85 445.7 502.85 387.7 461.85 414.7 461.85 468.7 502.85 445.7"/><polygon class="cls-6" points="459.84 357.7 505.67 386.22 505.67 445.28 463.92 468.7 416.05 449.35 415.04 385.2 459.84 357.7"/><rect class="cls-7" x="249.85" y="124.7" width="10" height="10"/><rect class="cls-7" x="249.85" y="141.9" width="10" height="10"/><rect class="cls-7" x="249.85" y="159.1" width="10" height="10"/><rect class="cls-7" x="249.85" y="176.3" width="10" height="10"/><rect class="cls-7" x="249.85" y="193.5" width="10" height="10"/><rect class="cls-7" x="249.85" y="210.7" width="10" height="10"/><rect class="cls-7" x="43.85" y="246.7" width="10" height="10"/><rect class="cls-7" x="43.85" y="263.9" width="10" height="10"/><rect class="cls-7" x="43.85" y="281.1" width="10" height="10"/><rect class="cls-7" x="43.85" y="298.3" width="10" height="10"/><rect class="cls-7" x="43.85" y="315.5" width="10" height="10"/><rect class="cls-7" x="43.85" y="332.7" width="10" height="10"/><rect class="cls-7" x="249.85" y="370.7" width="10" height="10"/><rect class="cls-7" x="249.85" y="387.9" width="10" height="10"/><rect class="cls-7" x="249.85" y="405.1" width="10" height="10"/><rect class="cls-7" x="249.85" y="422.3" width="10" height="10"/><rect class="cls-7" x="249.85" y="439.5" width="10" height="10"/><rect class="cls-7" x="249.85" y="456.7" width="10" height="10"/><rect class="cls-7" x="455.85" y="247.7" width="10" height="10"/><rect class="cls-7" x="455.85" y="264.9" width="10" height="10"/><rect class="cls-7" x="455.85" y="282.1" width="10" height="10"/><rect class="cls-7" x="455.85" y="299.3" width="10" height="10"/><rect class="cls-7" x="455.85" y="316.5" width="10" height="10"/><rect class="cls-7" x="455.85" y="333.7" width="10" height="10"/><rect class="cls-7" x="314.78" y="93.92" width="10" height="10" transform="translate(72.52 324.54) rotate(-59.57)"/><rect class="cls-7" x="329.61" y="102.63" width="10" height="10" transform="translate(72.32 341.63) rotate(-59.57)"/><rect class="cls-7" x="344.44" y="111.35" width="10" height="10" transform="translate(72.13 358.72) rotate(-59.57)"/><rect class="cls-7" x="359.27" y="120.06" width="10" height="10" transform="translate(71.94 375.81) rotate(-59.57)"/><rect class="cls-7" x="374.1" y="128.77" width="10" height="10" transform="translate(71.75 392.89) rotate(-59.57)"/><rect class="cls-7" x="388.93" y="137.48" width="10" height="10" transform="translate(71.55 409.98) rotate(-59.57)"/><rect class="cls-7" x="111.78" y="436.92" width="10" height="10" transform="translate(-323.42 318.78) rotate(-59.57)"/><rect class="cls-7" x="126.61" y="445.63" width="10" height="10" transform="translate(-323.61 335.87) rotate(-59.57)"/><rect class="cls-7" x="141.44" y="454.35" width="10" height="10" transform="translate(-323.8 352.96) rotate(-59.57)"/><rect class="cls-7" x="156.27" y="463.06" width="10" height="10" transform="translate(-323.99 370.04) rotate(-59.57)"/><rect class="cls-7" x="171.1" y="471.77" width="10" height="10" transform="translate(-324.19 387.13) rotate(-59.57)"/><rect class="cls-7" x="185.93" y="480.48" width="10" height="10" transform="translate(-324.38 404.22) rotate(-59.57)"/></g></g></svg>